<svg width="26" height="22" viewBox="0 0 26 22" fill="none" xmlns="http://www.w3.org/2000/svg">
                                <path
                                    d="M17.578 4.69963C17.578 5.81354 17.1355 6.88183 16.3478 7.66948C15.5602 8.45714 14.4919 8.89963 13.378 8.89963C12.264 8.89963 11.1958 8.45714 10.4081 7.66948C9.62045 6.88183 9.17796 5.81354 9.17796 4.69963C9.17796 3.58572 9.62045 2.51744 10.4081 1.72979C11.1958 0.942133 12.264 0.499634 13.378 0.499634C14.4919 0.499634 15.5602 0.942133 16.3478 1.72979C17.1355 2.51744 17.578 3.58572 17.578 4.69963ZM24.578 7.49963C24.578 8.24224 24.283 8.95443 23.7579 9.47953C23.2328 10.0046 22.5206 10.2996 21.778 10.2996C21.0353 10.2996 20.3232 10.0046 19.7981 9.47953C19.273 8.95443 18.978 8.24224 18.978 7.49963C18.978 6.75703 19.273 6.04484 19.7981 5.51973C20.3232 4.99463 21.0353 4.69963 21.778 4.69963C22.5206 4.69963 23.2328 4.99463 23.7579 5.51973C24.283 6.04484 24.578 6.75703 24.578 7.49963ZM18.978 17.2996C18.978 15.8144 18.388 14.39 17.3378 13.3398C16.2875 12.2896 14.8632 11.6996 13.378 11.6996C11.8927 11.6996 10.4684 12.2896 9.41816 13.3398C8.36795 14.39 7.77796 15.8144 7.77796 17.2996V21.4996H18.978V17.2996ZM7.77796 7.49963C7.77796 8.24224 7.48296 8.95443 6.95785 9.47953C6.43275 10.0046 5.72056 10.2996 4.97795 10.2996C4.23535 10.2996 3.52316 10.0046 2.99806 9.47953C2.47295 8.95443 2.17795 8.24224 2.17795 7.49963C2.17795 6.75703 2.47295 6.04484 2.99806 5.51973C3.52316 4.99463 4.23535 4.69963 4.97795 4.69963C5.72056 4.69963 6.43275 4.99463 6.95785 5.51973C7.48296 6.04484 7.77796 6.75703 7.77796 7.49963ZM21.778 21.4996V17.2996C21.78 15.8762 21.4186 14.4759 20.728 13.2312C21.3486 13.0724 21.9974 13.0574 22.6248 13.1874C23.2521 13.3175 23.8415 13.5891 24.3479 13.9815C24.8543 14.374 25.2644 14.8769 25.5469 15.4519C25.8294 16.027 25.9769 16.6589 25.978 17.2996V21.4996H21.778ZM6.02795 13.2312C5.3374 14.4759 4.97599 15.8762 4.97795 17.2996V21.4996H0.777954V17.2996C0.777685 16.6585 0.924203 16.0258 1.20628 15.45C1.48836 14.8743 1.89851 14.3707 2.40529 13.978C2.91208 13.5853 3.50205 13.3138 4.12999 13.1844C4.75793 13.0549 5.40717 13.0709 6.02795 13.2312Z"
                                    fill="#F9E784" />
                            </svg>