<svg width="23" height="23" viewBox="0 0 23 23" fill="none" xmlns="http://www.w3.org/2000/svg">
                                <path fill-rule="evenodd" clip-rule="evenodd"
                                    d="M11.378 22.4996C14.3484 22.4996 17.1972 21.3196 19.2976 19.2192C21.398 17.1188 22.578 14.27 22.578 11.2996C22.578 8.32918 21.398 5.48042 19.2976 3.38001C17.1972 1.27961 14.3484 0.0996094 11.378 0.0996094C8.40755 0.0996094 5.55879 1.27961 3.45838 3.38001C1.35798 5.48042 0.177979 8.32918 0.177979 11.2996C0.177979 14.27 1.35798 17.1188 3.45838 19.2192C5.55879 21.3196 8.40755 22.4996 11.378 22.4996ZM12.778 5.69961C12.778 5.32831 12.6305 4.97221 12.3679 4.70966C12.1054 4.44711 11.7493 4.29961 11.378 4.29961C11.0067 4.29961 10.6506 4.44711 10.388 4.70966C10.1255 4.97221 9.97798 5.32831 9.97798 5.69961V11.2996C9.97806 11.6709 10.1256 12.0269 10.3882 12.2894L14.3474 16.25C14.4775 16.3801 14.6319 16.4833 14.8018 16.5537C14.9718 16.6241 15.1539 16.6603 15.3379 16.6603C15.5218 16.6603 15.704 16.6241 15.8739 16.5537C16.0439 16.4833 16.1983 16.3801 16.3284 16.25C16.4585 16.1199 16.5616 15.9655 16.632 15.7956C16.7024 15.6256 16.7387 15.4435 16.7387 15.2595C16.7387 15.0756 16.7024 14.8934 16.632 14.7235C16.5616 14.5535 16.4585 14.3991 16.3284 14.269L12.778 10.72V5.69961Z"
                                    fill="#F9E784" />
                            </svg>