<svg width="29" height="30" viewBox="0 0 29 30" fill="none" xmlns="http://www.w3.org/2000/svg">
    <path d="M15.6505 0.541655C15.3129 0.194833 14.8552 0 14.3779 0C13.9006 0 13.4428 0.194833 13.1053 0.541655L0.505281 13.4917C0.177397 13.8406 -0.00403311 14.3079 6.80447e-05 14.7929C0.0041692 15.278 0.193473 15.742 0.527208 16.085C0.860943 16.428 1.3124 16.6226 1.78436 16.6268C2.25631 16.631 2.711 16.4445 3.05048 16.1076L3.57788 15.5655V27.7496C3.57788 28.2403 3.76752 28.7108 4.10509 29.0578C4.44266 29.4047 4.90049 29.5996 5.37788 29.5996H8.97788C9.45527 29.5996 9.91311 29.4047 10.2507 29.0578C10.5882 28.7108 10.7779 28.2403 10.7779 27.7496V24.0496C10.7779 23.559 10.9675 23.0884 11.3051 22.7415C11.6427 22.3945 12.1005 22.1996 12.5779 22.1996H16.1779C16.6553 22.1996 17.1131 22.3945 17.4507 22.7415C17.7882 23.0884 17.9779 23.559 17.9779 24.0496V27.7496C17.9779 28.2403 18.1675 28.7108 18.5051 29.0578C18.8427 29.4047 19.3005 29.5996 19.7779 29.5996H23.3779C23.8553 29.5996 24.3131 29.4047 24.6507 29.0578C24.9882 28.7108 25.1779 28.2403 25.1779 27.7496V15.5655L25.7053 16.1076C26.0448 16.4445 26.4995 16.631 26.9714 16.6268C27.4434 16.6226 27.8948 16.428 28.2286 16.085C28.5623 15.742 28.7516 15.278 28.7557 14.7929C28.7598 14.3079 28.5784 13.8406 28.2505 13.4917L15.6505 0.541655Z"
    fill="#F9E784" />
</svg>