<svg width="42" height="42" viewBox="0 0 42 42" fill="none" xmlns="http://www.w3.org/2000/svg">
    <path
        d="M0 3C0 2.20435 0.31607 1.44129 0.87868 0.87868C1.44129 0.31607 2.20435 0 3 0H39C39.7956 0 40.5587 0.31607 41.1213 0.87868C41.6839 1.44129 42 2.20435 42 3V9C42 9.79565 41.6839 10.5587 41.1213 11.1213C40.5587 11.6839 39.7956 12 39 12H3C2.20435 12 1.44129 11.6839 0.87868 11.1213C0.31607 10.5587 0 9.79565 0 9V3ZM0 21C0 20.2044 0.31607 19.4413 0.87868 18.8787C1.44129 18.3161 2.20435 18 3 18H21C21.7956 18 22.5587 18.3161 23.1213 18.8787C23.6839 19.4413 24 20.2044 24 21V39C24 39.7956 23.6839 40.5587 23.1213 41.1213C22.5587 41.6839 21.7956 42 21 42H3C2.20435 42 1.44129 41.6839 0.87868 41.1213C0.31607 40.5587 0 39.7956 0 39V21ZM33 18C32.2044 18 31.4413 18.3161 30.8787 18.8787C30.3161 19.4413 30 20.2044 30 21V39C30 39.7956 30.3161 40.5587 30.8787 41.1213C31.4413 41.6839 32.2044 42 33 42H39C39.7956 42 40.5587 41.6839 41.1213 41.1213C41.6839 40.5587 42 39.7956 42 39V21C42 20.2044 41.6839 19.4413 41.1213 18.8787C40.5587 18.3161 39.7956 18 39 18H33Z"
        fill="#D05353" />
</svg>