<svg width="23" height="24" viewBox="0 0 23 24" fill="none" xmlns="http://www.w3.org/2000/svg">
                                <path fill-rule="evenodd" clip-rule="evenodd"
                                    d="M22.578 3.5496V15.1496C22.578 15.9187 22.283 16.6564 21.7579 17.2002C21.2328 17.7441 20.5206 18.0496 19.778 18.0496H12.778L5.77798 23.8496V18.0496H2.97798C2.23537 18.0496 1.52318 17.7441 0.998079 17.2002C0.472978 16.6564 0.177979 15.9187 0.177979 15.1496V3.5496C0.177979 2.78047 0.472978 2.04284 0.998079 1.49899C1.52318 0.955132 2.23537 0.649597 2.97798 0.649597H19.778C20.5206 0.649597 21.2328 0.955132 21.7579 1.49899C22.283 2.04284 22.578 2.78047 22.578 3.5496ZM7.17798 7.8996H4.37798V10.7996H7.17798V7.8996ZM9.97798 7.8996H12.778V10.7996H9.97798V7.8996ZM18.378 7.8996H15.578V10.7996H18.378V7.8996Z"
                                    fill="#F9E784" />
                            </svg>