<svg width="23" height="23" viewBox="0 0 23 23" fill="none" xmlns="http://www.w3.org/2000/svg">
                                <path fill-rule="evenodd" clip-rule="evenodd"
                                    d="M0.410378 4.29824C4.46357 4.24784 8.36071 2.72808 11.378 0.0212402C14.395 2.72859 18.2922 4.24886 22.3456 4.29964C22.4996 5.20964 22.578 6.14764 22.578 7.10104C22.578 14.416 17.902 20.639 11.378 22.9448C4.85398 20.6376 0.177979 14.4146 0.177979 7.09964C0.177979 6.14484 0.257778 5.20964 0.410378 4.29824ZM16.5678 9.48944C16.8228 9.2254 16.9639 8.87175 16.9607 8.50468C16.9575 8.1376 16.8103 7.78647 16.5507 7.52689C16.2912 7.26732 15.94 7.12009 15.5729 7.1169C15.2059 7.11371 14.8522 7.25482 14.5882 7.50984L9.97798 12.12L8.16778 10.3098C7.90374 10.0548 7.55009 9.91371 7.18302 9.9169C6.81594 9.92009 6.4648 10.0673 6.20523 10.3269C5.94566 10.5865 5.79842 10.9376 5.79523 11.3047C5.79204 11.6718 5.93316 12.0254 6.18818 12.2894L8.98818 15.0894C9.25072 15.3519 9.60675 15.4993 9.97798 15.4993C10.3492 15.4993 10.7052 15.3519 10.9678 15.0894L16.5678 9.48944Z"
                                    fill="#F9E784" />
                            </svg>