<svg width="23" height="22" viewBox="0 0 23 22" fill="none" xmlns="http://www.w3.org/2000/svg">
                                <path fill-rule="evenodd" clip-rule="evenodd"
                                    d="M11.378 0.0996094C11.0067 0.0996094 10.6506 0.247109 10.388 0.50966C10.1255 0.772211 9.97798 1.12831 9.97798 1.49961V2.89961C9.97798 3.27091 10.1255 3.62701 10.388 3.88956C10.6506 4.15211 11.0067 4.29961 11.378 4.29961C11.7493 4.29961 12.1054 4.15211 12.3679 3.88956C12.6305 3.62701 12.778 3.27091 12.778 2.89961V1.49961C12.778 1.12831 12.6305 0.772211 12.3679 0.50966C12.1054 0.247109 11.7493 0.0996094 11.378 0.0996094ZM2.97798 2.89961H7.17798C7.17798 4.01352 7.62048 5.0818 8.40813 5.86946C9.19578 6.65711 10.2641 7.09961 11.378 7.09961C12.4919 7.09961 13.5602 6.65711 14.3478 5.86946C15.1355 5.0818 15.578 4.01352 15.578 2.89961H19.778C20.5206 2.89961 21.2328 3.19461 21.7579 3.71971C22.283 4.24481 22.578 4.957 22.578 5.69961V18.2996C22.578 19.0422 22.283 19.7544 21.7579 20.2795C21.2328 20.8046 20.5206 21.0996 19.778 21.0996H2.97798C2.23537 21.0996 1.52318 20.8046 0.998079 20.2795C0.472978 19.7544 0.177979 19.0422 0.177979 18.2996V5.69961C0.177979 4.957 0.472978 4.24481 0.998079 3.71971C1.52318 3.19461 2.23537 2.89961 2.97798 2.89961ZM6.47798 12.6996C7.03493 12.6996 7.56908 12.4784 7.9629 12.0845C8.35673 11.6907 8.57798 11.1566 8.57798 10.5996C8.57798 10.0427 8.35673 9.50851 7.9629 9.11469C7.56908 8.72086 7.03493 8.49961 6.47798 8.49961C5.92102 8.49961 5.38688 8.72086 4.99305 9.11469C4.59923 9.50851 4.37798 10.0427 4.37798 10.5996C4.37798 11.1566 4.59923 11.6907 4.99305 12.0845C5.38688 12.4784 5.92102 12.6996 6.47798 12.6996ZM9.90798 18.2996C10.0112 17.7913 10.0001 17.2664 9.87561 16.7628C9.75108 16.2593 9.51619 15.7898 9.18793 15.3881C8.85967 14.9865 8.44625 14.6629 7.97757 14.4406C7.50889 14.2184 6.99668 14.1031 6.47798 14.1031C5.95928 14.1031 5.44706 14.2184 4.97838 14.4406C4.50971 14.6629 4.09628 14.9865 3.76802 15.3881C3.43976 15.7898 3.20487 16.2593 3.08034 16.7628C2.95581 17.2664 2.94476 17.7913 3.04798 18.2996H9.90798ZM14.178 9.89961C13.8067 9.89961 13.4506 10.0471 13.188 10.3097C12.9255 10.5722 12.778 10.9283 12.778 11.2996C12.778 11.6709 12.9255 12.027 13.188 12.2896C13.4506 12.5521 13.8067 12.6996 14.178 12.6996H18.378C18.7493 12.6996 19.1054 12.5521 19.3679 12.2896C19.6305 12.027 19.778 11.6709 19.778 11.2996C19.778 10.9283 19.6305 10.5722 19.3679 10.3097C19.1054 10.0471 18.7493 9.89961 18.378 9.89961H14.178ZM12.778 15.4996C12.778 15.1283 12.9255 14.7722 13.188 14.5097C13.4506 14.2471 13.8067 14.0996 14.178 14.0996H16.978C17.3493 14.0996 17.7054 14.2471 17.9679 14.5097C18.2305 14.7722 18.378 15.1283 18.378 15.4996C18.378 15.8709 18.2305 16.227 17.9679 16.4896C17.7054 16.7521 17.3493 16.8996 16.978 16.8996H14.178C13.8067 16.8996 13.4506 16.7521 13.188 16.4896C12.9255 16.227 12.778 15.8709 12.778 15.4996Z"
                                    fill="#F9E784" />
                            </svg>