<svg width="21" height="22" viewBox="0 0 21 22" fill="none" xmlns="http://www.w3.org/2000/svg">
                            <path fill-rule="evenodd" clip-rule="evenodd"
                                d="M7.8 3.2C6.42087 3.2 5.09823 3.74785 4.12304 4.72304C3.14786 5.69823 2.6 7.02087 2.6 8.4C2.6 9.77912 3.14786 11.1018 4.12304 12.077C5.09823 13.0521 6.42087 13.6 7.8 13.6C9.17913 13.6 10.5018 13.0521 11.477 12.077C12.4521 11.1018 13 9.77912 13 8.4C13 7.02087 12.4521 5.69823 11.477 4.72304C10.5018 3.74785 9.17913 3.2 7.8 3.2ZM1.475e-07 8.4C-0.000156507 7.17241 0.289435 5.96212 0.845223 4.86756C1.40101 3.773 2.2073 2.82507 3.19851 2.10088C4.18973 1.37668 5.33788 0.896671 6.54959 0.699878C7.7613 0.503085 9.00235 0.59507 10.1718 0.968351C11.3413 1.34163 12.4061 1.98567 13.2797 2.84808C14.1533 3.71049 14.8111 4.76693 15.1994 5.93147C15.5878 7.09601 15.6958 8.33577 15.5146 9.54991C15.3335 10.7641 14.8683 11.9183 14.157 12.9188L20.4191 19.1809C20.6559 19.4261 20.7869 19.7545 20.784 20.0953C20.781 20.4362 20.6443 20.7622 20.4033 21.0033C20.1622 21.2443 19.8362 21.381 19.4953 21.384C19.1545 21.3869 18.8261 21.2559 18.5809 21.0191L12.3201 14.7583C11.1532 15.5881 9.78035 16.0806 8.35208 16.182C6.92381 16.2833 5.49519 15.9895 4.22279 15.3329C2.95039 14.6762 1.88329 13.6819 1.13844 12.4591C0.393588 11.2362 -0.000278266 9.83186 1.475e-07 8.4Z"
                                fill="#F9E784" />
                        </svg>