<svg width="23" height="23" viewBox="0 0 23 23" fill="none" xmlns="http://www.w3.org/2000/svg">
                                <path fill-rule="evenodd" clip-rule="evenodd"
                                    d="M13.4639 1.73761C12.9319 -0.446391 9.82387 -0.446391 9.29187 1.73761C9.21245 2.06579 9.05666 2.37058 8.83718 2.62718C8.61771 2.88379 8.34076 3.08494 8.02885 3.21429C7.71695 3.34363 7.37892 3.39751 7.04226 3.37153C6.70561 3.34556 6.37984 3.24047 6.09147 3.06481C4.17067 1.89441 1.97267 4.09241 3.14307 6.01321C3.89907 7.25361 3.22847 8.87201 1.81727 9.21501C-0.368127 9.74561 -0.368127 12.855 1.81727 13.3842C2.14554 13.4637 2.45039 13.6197 2.70699 13.8393C2.96359 14.059 3.16469 14.3361 3.29391 14.6482C3.42313 14.9602 3.47682 15.2984 3.45061 15.6351C3.4244 15.9719 3.31903 16.2977 3.14307 16.586C1.97267 18.5068 4.17067 20.7048 6.09147 19.5344C6.37979 19.3585 6.70558 19.2531 7.04233 19.2269C7.37908 19.2007 7.71725 19.2544 8.02932 19.3836C8.34139 19.5128 8.61853 19.7139 8.83817 19.9705C9.05781 20.2271 9.21375 20.5319 9.29327 20.8602C9.82387 23.0456 12.9333 23.0456 13.4625 20.8602C13.5423 20.5321 13.6984 20.2275 13.918 19.971C14.1377 19.7146 14.4148 19.5137 14.7268 19.3845C15.0388 19.2553 15.3768 19.2015 15.7135 19.2276C16.0501 19.2536 16.3759 19.3588 16.6643 19.5344C18.5851 20.7048 20.7831 18.5068 19.6127 16.586C19.437 16.2976 19.3319 15.9719 19.3059 15.6352C19.2798 15.2986 19.3336 14.9605 19.4627 14.6485C19.5919 14.3366 19.7929 14.0595 20.0493 13.8398C20.3057 13.6201 20.6104 13.464 20.9385 13.3842C23.1239 12.8536 23.1239 9.74421 20.9385 9.21501C20.6102 9.13548 20.3054 8.97955 20.0488 8.75991C19.7922 8.54027 19.5911 8.26313 19.4618 7.95106C19.3326 7.63899 19.2789 7.30081 19.3051 6.96407C19.3313 6.62732 19.4367 6.30152 19.6127 6.01321C20.7831 4.09241 18.5851 1.89441 16.6643 3.06481C16.376 3.24076 16.0502 3.34614 15.7134 3.37235C15.3767 3.39856 15.0385 3.34487 14.7264 3.21564C14.4144 3.08642 14.1372 2.88532 13.9176 2.62872C13.6979 2.37212 13.542 2.06728 13.4625 1.73901L13.4639 1.73761ZM11.3779 15.4996C12.4918 15.4996 13.5601 15.0571 14.3477 14.2695C15.1354 13.4818 15.5779 12.4135 15.5779 11.2996C15.5779 10.1857 15.1354 9.11741 14.3477 8.32976C13.5601 7.54211 12.4918 7.09961 11.3779 7.09961C10.264 7.09961 9.19568 7.54211 8.40802 8.32976C7.62037 9.11741 7.17787 10.1857 7.17787 11.2996C7.17787 12.4135 7.62037 13.4818 8.40802 14.2695C9.19568 15.0571 10.264 15.4996 11.3779 15.4996Z"
                                    fill="#F9E784" />
                            </svg>