<svg width="23" height="23" viewBox="0 0 23 23" fill="none" xmlns="http://www.w3.org/2000/svg">
                                <path fill-rule="evenodd" clip-rule="evenodd"
                                    d="M22.578 11.2996C22.578 14.27 21.398 17.1188 19.2976 19.2192C17.1972 21.3196 14.3484 22.4996 11.378 22.4996C8.40755 22.4996 5.55879 21.3196 3.45838 19.2192C1.35798 17.1188 0.177979 14.27 0.177979 11.2996C0.177979 8.32918 1.35798 5.48042 3.45838 3.38001C5.55879 1.27961 8.40755 0.0996094 11.378 0.0996094C14.3484 0.0996094 17.1972 1.27961 19.2976 3.38001C21.398 5.48042 22.578 8.32918 22.578 11.2996ZM19.778 11.2996C19.778 12.6898 19.4406 14.0002 18.8428 15.1552L16.7092 13.0202C17.0286 12.0314 17.0665 10.9731 16.8184 9.96401L19.0052 7.77721C19.5008 8.84821 19.778 10.0396 19.778 11.2996ZM12.547 16.7778L14.759 18.9898C13.6936 19.4589 12.5421 19.7006 11.378 19.6996C10.1616 19.7011 8.95958 19.4374 7.85558 18.9268L10.0424 16.74C10.8637 16.9413 11.7199 16.9542 12.547 16.7778ZM5.99918 12.8634C5.72367 11.9148 5.70387 10.9102 5.94178 9.95141L5.82978 10.0634L3.68778 7.91721C3.2185 8.98304 2.97675 10.135 2.97798 11.2996C2.97798 12.6352 3.29018 13.898 3.84458 15.0194L6.00058 12.8634H5.99918ZM7.52238 3.83341C8.71409 3.21743 10.0365 2.89716 11.378 2.89961C12.7136 2.89961 13.9764 3.21181 15.0978 3.76621L12.9418 5.92221C11.8669 5.60913 10.723 5.62523 9.65738 5.96841L7.52238 3.83481V3.83341ZM14.178 11.2996C14.178 12.0422 13.883 12.7544 13.3579 13.2795C12.8328 13.8046 12.1206 14.0996 11.378 14.0996C10.6354 14.0996 9.92318 13.8046 9.39808 13.2795C8.87298 12.7544 8.57798 12.0422 8.57798 11.2996C8.57798 10.557 8.87298 9.84481 9.39808 9.31971C9.92318 8.79461 10.6354 8.49961 11.378 8.49961C12.1206 8.49961 12.8328 8.79461 13.3579 9.31971C13.883 9.84481 14.178 10.557 14.178 11.2996Z"
                                    fill="#F9E784" />
                            </svg>