<svg width="23" height="21" viewBox="0 0 23 21" fill="none" xmlns="http://www.w3.org/2000/svg">
                                <path
                                    d="M7.17798 0.499634C6.80668 0.499634 6.45058 0.647133 6.18803 0.909684C5.92548 1.17224 5.77798 1.52833 5.77798 1.89963C5.77798 2.27094 5.92548 2.62703 6.18803 2.88958C6.45058 3.15213 6.80668 3.29963 7.17798 3.29963H15.578C15.9493 3.29963 16.3054 3.15213 16.5679 2.88958C16.8305 2.62703 16.978 2.27094 16.978 1.89963C16.978 1.52833 16.8305 1.17224 16.5679 0.909684C16.3054 0.647133 15.9493 0.499634 15.578 0.499634H7.17798ZM2.97798 6.09963C2.97798 5.72833 3.12548 5.37224 3.38803 5.10968C3.65058 4.84713 4.00668 4.69963 4.37798 4.69963H18.378C18.7493 4.69963 19.1054 4.84713 19.3679 5.10968C19.6305 5.37224 19.778 5.72833 19.778 6.09963C19.778 6.47094 19.6305 6.82703 19.3679 7.08958C19.1054 7.35213 18.7493 7.49963 18.378 7.49963H4.37798C4.00668 7.49963 3.65058 7.35213 3.38803 7.08958C3.12548 6.82703 2.97798 6.47094 2.97798 6.09963ZM0.177979 11.6996C0.177979 10.957 0.472978 10.2448 0.998079 9.71974C1.52318 9.19463 2.23537 8.89963 2.97798 8.89963H19.778C20.5206 8.89963 21.2328 9.19463 21.7579 9.71974C22.283 10.2448 22.578 10.957 22.578 11.6996V17.2996C22.578 18.0422 22.283 18.7544 21.7579 19.2795C21.2328 19.8046 20.5206 20.0996 19.778 20.0996H2.97798C2.23537 20.0996 1.52318 19.8046 0.998079 19.2795C0.472978 18.7544 0.177979 18.0422 0.177979 17.2996V11.6996Z"
                                    fill="#F9E784" />
                            </svg>